<svg width="48" height="48" viewBox="0 0 48 48" fill="none" xmlns="http://www.w3.org/2000/svg">
<path fill-rule="evenodd" clip-rule="evenodd" d="M2 4.6665C0.895431 4.6665 0 5.56194 0 6.66651V37.3332C0 38.4377 0.895431 39.3332 2 39.3332H46C47.1046 39.3332 48 38.4377 48 37.3332V6.6665C48 5.56193 47.1046 4.6665 46 4.6665H2ZM43.0943 10.385C42.5706 9.41244 41.3577 9.04857 40.3851 9.57224L25.8964 17.3739C24.7125 18.0114 23.2875 18.0114 22.1036 17.3739L7.61488 9.57224C6.64234 9.04857 5.42941 9.41244 4.90574 10.385C4.38206 11.3575 4.74594 12.5705 5.71848 13.0941L23.0518 22.4275C23.6438 22.7462 24.3563 22.7462 24.9482 22.4275L42.2815 13.0941C43.2541 12.5705 43.618 11.3575 43.0943 10.385Z" fill="black"/>
</svg>
