<svg width="2272" height="2795" viewBox="0 0 2272 2795" fill="none" xmlns="http://www.w3.org/2000/svg">
<g clip-path="url(#clip0_915_203)">
<line x1="245.15" y1="2561.8" x2="245.15" y2="1777.83" stroke="black" stroke-width="27" stroke-linecap="round"/>
<line x1="439.941" y1="2313.28" x2="439.941" y2="1777.83" stroke="black" stroke-width="27" stroke-linecap="round"/>
<line x1="858.438" y1="2482.97" x2="858.438" y2="2216.31" stroke="black" stroke-width="27" stroke-linecap="round"/>
<line x1="1067.76" y1="2561.8" x2="1067.76" y2="2379.52" stroke="black" stroke-width="27" stroke-linecap="round"/>
<line x1="1381.67" y1="2561.8" x2="1381.64" y2="971.475" stroke="black" stroke-width="27" stroke-linecap="round"/>
<line x1="1643.26" y1="2561.8" x2="1643.26" y2="979.94" stroke="black" stroke-width="27" stroke-linecap="round"/>
<line x1="231.088" y1="1763.91" x2="453.441" y2="1763.91" stroke="black" stroke-width="27"/>
<line x1="430.16" y1="2104.41" x2="649.317" y2="2104.41" stroke="black" stroke-width="27"/>
<line x1="649.635" y1="2208.64" x2="871.988" y2="2208.64" stroke="black" stroke-width="27"/>
<line x1="858.909" y1="2365.6" x2="1081.26" y2="2365.6" stroke="black" stroke-width="27"/>
<line x1="-226.697" y1="1920.87" x2="126.452" y2="1920.87" stroke="black" stroke-width="27"/>
<path d="M113.373 2575.3V1543.3L362.204 1280.37L649.637 1581.21V2464.12" stroke="black" stroke-width="27" stroke-linecap="round"/>
<rect x="-69.3223" y="1777.83" width="169.194" height="143.043" stroke="black" stroke-width="27"/>
<path d="M963.546 2366.02V1780.87L1109.55 1659.69L1277.46 1760.68C1277.46 1760.68 1277.46 2257.17 1277.46 2575.3" stroke="black" stroke-width="27" stroke-linecap="round"/>
<line x1="1055.52" y1="1843.23" x2="1055.52" y2="2300.2" stroke="black" stroke-width="27" stroke-linecap="round"/>
<line x1="1134" y1="1843.23" x2="1134" y2="2561.8" stroke="black" stroke-width="27" stroke-linecap="round"/>
<line x1="1513.31" y1="1149.98" x2="1513.31" y2="2156.32" stroke="black" stroke-width="27" stroke-linecap="round"/>
<line x1="1290.96" y1="455.893" x2="1433.99" y2="455.893" stroke="black" stroke-width="27" stroke-linecap="round"/>
<line x1="1238.64" y1="560.535" x2="1381.67" y2="560.535" stroke="black" stroke-width="27" stroke-linecap="round"/>
<line x1="1212.48" y1="665.176" x2="1342.43" y2="665.176" stroke="black" stroke-width="27" stroke-linecap="round"/>
<line x1="1238.64" y1="769.818" x2="1381.67" y2="769.818" stroke="black" stroke-width="27" stroke-linecap="round"/>
<line x1="1290.96" y1="874.459" x2="1433.99" y2="874.459" stroke="black" stroke-width="27" stroke-linecap="round"/>
<line x1="1212.48" y1="1843.23" x2="1212.48" y2="2561.8" stroke="black" stroke-width="27" stroke-linecap="round"/>
<path d="M1839.46 672.136C1839.46 848.893 1696.18 992.181 1519.43 992.181C1342.68 992.181 1199.4 848.893 1199.4 672.136C1199.4 495.379 1342.68 352.091 1519.43 352.091C1696.18 352.091 1839.46 495.379 1839.46 672.136Z" stroke="black" stroke-width="27"/>
</g>
<defs>
<clipPath id="clip0_915_203">
<rect width="1787" height="2404" fill="white" transform="translate(100 171)"/>
</clipPath>
</defs>
</svg>
